<?xml version="1.0" encoding="UTF-8" standalone="no"?>
<!DOCTYPE svg PUBLIC "-//W3C//DTD SVG 1.1//EN"
 "http://www.w3.org/Graphics/SVG/1.1/DTD/svg11.dtd">
<!-- Generated by graphviz version 3.0.0 (20220226.1711)
 -->
<!-- Pages: 1 -->
<svg width="935pt" height="205pt"
 viewBox="0.00 0.00 935.00 205.00" xmlns="http://www.w3.org/2000/svg" xmlns:xlink="http://www.w3.org/1999/xlink">
<g id="graph0" class="graph" transform="scale(1 1) rotate(0) translate(4 201)">
<polygon fill="white" stroke="transparent" points="-4,4 -4,-201 931,-201 931,4 -4,4"/>
<!-- tbl -->
<g id="node1" class="node">
<title>tbl</title>
<polygon fill="none" stroke="blue" points="8.5,-171.5 8.5,-192.5 135.5,-192.5 135.5,-171.5 8.5,-171.5"/>
<polygon fill="none" stroke="blue" points="135.5,-171.5 135.5,-192.5 216.5,-192.5 216.5,-171.5 135.5,-171.5"/>
<text text-anchor="start" x="138.5" y="-179.3" font-family="Times New Roman,serif" font-weight="bold" font-size="14.00">check ticket</text>
<polygon fill="none" stroke="blue" points="216.5,-171.5 216.5,-192.5 262.5,-192.5 262.5,-171.5 216.5,-171.5"/>
<text text-anchor="start" x="219.5" y="-179.3" font-family="Times New Roman,serif" font-weight="bold" font-size="14.00">decide</text>
<polygon fill="none" stroke="blue" points="262.5,-171.5 262.5,-192.5 372.5,-192.5 372.5,-171.5 262.5,-171.5"/>
<text text-anchor="start" x="265.5" y="-179.3" font-family="Times New Roman,serif" font-weight="bold" font-size="14.00">examine casually</text>
<polygon fill="none" stroke="blue" points="372.5,-171.5 372.5,-192.5 499.5,-192.5 499.5,-171.5 372.5,-171.5"/>
<text text-anchor="start" x="375.5" y="-179.3" font-family="Times New Roman,serif" font-weight="bold" font-size="14.00">examine thoroughly</text>
<polygon fill="none" stroke="blue" points="499.5,-171.5 499.5,-192.5 615.5,-192.5 615.5,-171.5 499.5,-171.5"/>
<text text-anchor="start" x="502.5" y="-179.3" font-family="Times New Roman,serif" font-weight="bold" font-size="14.00">pay compensation</text>
<polygon fill="none" stroke="blue" points="615.5,-171.5 615.5,-192.5 718.5,-192.5 718.5,-171.5 615.5,-171.5"/>
<text text-anchor="start" x="618.5" y="-179.3" font-family="Times New Roman,serif" font-weight="bold" font-size="14.00">register request</text>
<polygon fill="none" stroke="blue" points="718.5,-171.5 718.5,-192.5 828.5,-192.5 828.5,-171.5 718.5,-171.5"/>
<text text-anchor="start" x="721.5" y="-179.3" font-family="Times New Roman,serif" font-weight="bold" font-size="14.00">reinitiate request</text>
<polygon fill="none" stroke="blue" points="828.5,-171.5 828.5,-192.5 919.5,-192.5 919.5,-171.5 828.5,-171.5"/>
<text text-anchor="start" x="831.5" y="-179.3" font-family="Times New Roman,serif" font-weight="bold" font-size="14.00">reject request</text>
<polygon fill="none" stroke="blue" points="8.5,-150.5 8.5,-171.5 135.5,-171.5 135.5,-150.5 8.5,-150.5"/>
<text text-anchor="start" x="34.5" y="-158.3" font-family="Times New Roman,serif" font-weight="bold" font-size="14.00">check ticket</text>
<polygon fill="none" stroke="blue" points="135.5,-150.5 135.5,-171.5 216.5,-171.5 216.5,-150.5 135.5,-150.5"/>
<text text-anchor="start" x="172" y="-157.3" font-family="Times New Roman,serif" font-size="14.00">#</text>
<polygon fill="none" stroke="blue" points="216.5,-150.5 216.5,-171.5 262.5,-171.5 262.5,-150.5 216.5,-150.5"/>
<text text-anchor="start" x="235" y="-157.3" font-family="Times New Roman,serif" font-size="14.00">&gt;</text>
<polygon fill="none" stroke="blue" points="262.5,-150.5 262.5,-171.5 372.5,-171.5 372.5,-150.5 262.5,-150.5"/>
<text text-anchor="start" x="315" y="-157.3" font-family="Times New Roman,serif" font-size="14.00">||</text>
<polygon fill="none" stroke="blue" points="372.5,-150.5 372.5,-171.5 499.5,-171.5 499.5,-150.5 372.5,-150.5"/>
<text text-anchor="start" x="433.5" y="-157.3" font-family="Times New Roman,serif" font-size="14.00">||</text>
<polygon fill="none" stroke="blue" points="499.5,-150.5 499.5,-171.5 615.5,-171.5 615.5,-150.5 499.5,-150.5"/>
<text text-anchor="start" x="553.5" y="-157.3" font-family="Times New Roman,serif" font-size="14.00">#</text>
<polygon fill="none" stroke="blue" points="615.5,-150.5 615.5,-171.5 718.5,-171.5 718.5,-150.5 615.5,-150.5"/>
<text text-anchor="start" x="662.5" y="-157.3" font-family="Times New Roman,serif" font-size="14.00">&lt;</text>
<polygon fill="none" stroke="blue" points="718.5,-150.5 718.5,-171.5 828.5,-171.5 828.5,-150.5 718.5,-150.5"/>
<text text-anchor="start" x="769" y="-157.3" font-family="Times New Roman,serif" font-size="14.00">&lt;</text>
<polygon fill="none" stroke="blue" points="828.5,-150.5 828.5,-171.5 919.5,-171.5 919.5,-150.5 828.5,-150.5"/>
<text text-anchor="start" x="870" y="-157.3" font-family="Times New Roman,serif" font-size="14.00">#</text>
<polygon fill="none" stroke="blue" points="8.5,-129.5 8.5,-150.5 135.5,-150.5 135.5,-129.5 8.5,-129.5"/>
<text text-anchor="start" x="52" y="-137.3" font-family="Times New Roman,serif" font-weight="bold" font-size="14.00">decide</text>
<polygon fill="none" stroke="blue" points="135.5,-129.5 135.5,-150.5 216.5,-150.5 216.5,-129.5 135.5,-129.5"/>
<text text-anchor="start" x="171.5" y="-136.3" font-family="Times New Roman,serif" font-size="14.00">&lt;</text>
<polygon fill="none" stroke="blue" points="216.5,-129.5 216.5,-150.5 262.5,-150.5 262.5,-129.5 216.5,-129.5"/>
<text text-anchor="start" x="235.5" y="-136.3" font-family="Times New Roman,serif" font-size="14.00">#</text>
<polygon fill="none" stroke="blue" points="262.5,-129.5 262.5,-150.5 372.5,-150.5 372.5,-129.5 262.5,-129.5"/>
<text text-anchor="start" x="313" y="-136.3" font-family="Times New Roman,serif" font-size="14.00">&lt;</text>
<polygon fill="none" stroke="blue" points="372.5,-129.5 372.5,-150.5 499.5,-150.5 499.5,-129.5 372.5,-129.5"/>
<text text-anchor="start" x="431.5" y="-136.3" font-family="Times New Roman,serif" font-size="14.00">&lt;</text>
<polygon fill="none" stroke="blue" points="499.5,-129.5 499.5,-150.5 615.5,-150.5 615.5,-129.5 499.5,-129.5"/>
<text text-anchor="start" x="553" y="-136.3" font-family="Times New Roman,serif" font-size="14.00">&gt;</text>
<polygon fill="none" stroke="blue" points="615.5,-129.5 615.5,-150.5 718.5,-150.5 718.5,-129.5 615.5,-129.5"/>
<text text-anchor="start" x="663" y="-136.3" font-family="Times New Roman,serif" font-size="14.00">#</text>
<polygon fill="none" stroke="blue" points="718.5,-129.5 718.5,-150.5 828.5,-150.5 828.5,-129.5 718.5,-129.5"/>
<text text-anchor="start" x="769" y="-136.3" font-family="Times New Roman,serif" font-size="14.00">&gt;</text>
<polygon fill="none" stroke="blue" points="828.5,-129.5 828.5,-150.5 919.5,-150.5 919.5,-129.5 828.5,-129.5"/>
<text text-anchor="start" x="869.5" y="-136.3" font-family="Times New Roman,serif" font-size="14.00">&gt;</text>
<polygon fill="none" stroke="blue" points="8.5,-108.5 8.5,-129.5 135.5,-129.5 135.5,-108.5 8.5,-108.5"/>
<text text-anchor="start" x="20" y="-116.3" font-family="Times New Roman,serif" font-weight="bold" font-size="14.00">examine casually</text>
<polygon fill="none" stroke="blue" points="135.5,-108.5 135.5,-129.5 216.5,-129.5 216.5,-108.5 135.5,-108.5"/>
<text text-anchor="start" x="173.5" y="-115.3" font-family="Times New Roman,serif" font-size="14.00">||</text>
<polygon fill="none" stroke="blue" points="216.5,-108.5 216.5,-129.5 262.5,-129.5 262.5,-108.5 216.5,-108.5"/>
<text text-anchor="start" x="235" y="-115.3" font-family="Times New Roman,serif" font-size="14.00">&gt;</text>
<polygon fill="none" stroke="blue" points="262.5,-108.5 262.5,-129.5 372.5,-129.5 372.5,-108.5 262.5,-108.5"/>
<text text-anchor="start" x="313.5" y="-115.3" font-family="Times New Roman,serif" font-size="14.00">#</text>
<polygon fill="none" stroke="blue" points="372.5,-108.5 372.5,-129.5 499.5,-129.5 499.5,-108.5 372.5,-108.5"/>
<text text-anchor="start" x="432" y="-115.3" font-family="Times New Roman,serif" font-size="14.00">#</text>
<polygon fill="none" stroke="blue" points="499.5,-108.5 499.5,-129.5 615.5,-129.5 615.5,-108.5 499.5,-108.5"/>
<text text-anchor="start" x="553.5" y="-115.3" font-family="Times New Roman,serif" font-size="14.00">#</text>
<polygon fill="none" stroke="blue" points="615.5,-108.5 615.5,-129.5 718.5,-129.5 718.5,-108.5 615.5,-108.5"/>
<text text-anchor="start" x="662.5" y="-115.3" font-family="Times New Roman,serif" font-size="14.00">&lt;</text>
<polygon fill="none" stroke="blue" points="718.5,-108.5 718.5,-129.5 828.5,-129.5 828.5,-108.5 718.5,-108.5"/>
<text text-anchor="start" x="769" y="-115.3" font-family="Times New Roman,serif" font-size="14.00">&lt;</text>
<polygon fill="none" stroke="blue" points="828.5,-108.5 828.5,-129.5 919.5,-129.5 919.5,-108.5 828.5,-108.5"/>
<text text-anchor="start" x="870" y="-115.3" font-family="Times New Roman,serif" font-size="14.00">#</text>
<polygon fill="none" stroke="blue" points="8.5,-87.5 8.5,-108.5 135.5,-108.5 135.5,-87.5 8.5,-87.5"/>
<text text-anchor="start" x="11.5" y="-95.3" font-family="Times New Roman,serif" font-weight="bold" font-size="14.00">examine thoroughly</text>
<polygon fill="none" stroke="blue" points="135.5,-87.5 135.5,-108.5 216.5,-108.5 216.5,-87.5 135.5,-87.5"/>
<text text-anchor="start" x="173.5" y="-94.3" font-family="Times New Roman,serif" font-size="14.00">||</text>
<polygon fill="none" stroke="blue" points="216.5,-87.5 216.5,-108.5 262.5,-108.5 262.5,-87.5 216.5,-87.5"/>
<text text-anchor="start" x="235" y="-94.3" font-family="Times New Roman,serif" font-size="14.00">&gt;</text>
<polygon fill="none" stroke="blue" points="262.5,-87.5 262.5,-108.5 372.5,-108.5 372.5,-87.5 262.5,-87.5"/>
<text text-anchor="start" x="313.5" y="-94.3" font-family="Times New Roman,serif" font-size="14.00">#</text>
<polygon fill="none" stroke="blue" points="372.5,-87.5 372.5,-108.5 499.5,-108.5 499.5,-87.5 372.5,-87.5"/>
<text text-anchor="start" x="432" y="-94.3" font-family="Times New Roman,serif" font-size="14.00">#</text>
<polygon fill="none" stroke="blue" points="499.5,-87.5 499.5,-108.5 615.5,-108.5 615.5,-87.5 499.5,-87.5"/>
<text text-anchor="start" x="553.5" y="-94.3" font-family="Times New Roman,serif" font-size="14.00">#</text>
<polygon fill="none" stroke="blue" points="615.5,-87.5 615.5,-108.5 718.5,-108.5 718.5,-87.5 615.5,-87.5"/>
<text text-anchor="start" x="662.5" y="-94.3" font-family="Times New Roman,serif" font-size="14.00">&lt;</text>
<polygon fill="none" stroke="blue" points="718.5,-87.5 718.5,-108.5 828.5,-108.5 828.5,-87.5 718.5,-87.5"/>
<text text-anchor="start" x="769" y="-94.3" font-family="Times New Roman,serif" font-size="14.00">&lt;</text>
<polygon fill="none" stroke="blue" points="828.5,-87.5 828.5,-108.5 919.5,-108.5 919.5,-87.5 828.5,-87.5"/>
<text text-anchor="start" x="870" y="-94.3" font-family="Times New Roman,serif" font-size="14.00">#</text>
<polygon fill="none" stroke="blue" points="8.5,-66.5 8.5,-87.5 135.5,-87.5 135.5,-66.5 8.5,-66.5"/>
<text text-anchor="start" x="17" y="-74.3" font-family="Times New Roman,serif" font-weight="bold" font-size="14.00">pay compensation</text>
<polygon fill="none" stroke="blue" points="135.5,-66.5 135.5,-87.5 216.5,-87.5 216.5,-66.5 135.5,-66.5"/>
<text text-anchor="start" x="172" y="-73.3" font-family="Times New Roman,serif" font-size="14.00">#</text>
<polygon fill="none" stroke="blue" points="216.5,-66.5 216.5,-87.5 262.5,-87.5 262.5,-66.5 216.5,-66.5"/>
<text text-anchor="start" x="235" y="-73.3" font-family="Times New Roman,serif" font-size="14.00">&lt;</text>
<polygon fill="none" stroke="blue" points="262.5,-66.5 262.5,-87.5 372.5,-87.5 372.5,-66.5 262.5,-66.5"/>
<text text-anchor="start" x="313.5" y="-73.3" font-family="Times New Roman,serif" font-size="14.00">#</text>
<polygon fill="none" stroke="blue" points="372.5,-66.5 372.5,-87.5 499.5,-87.5 499.5,-66.5 372.5,-66.5"/>
<text text-anchor="start" x="432" y="-73.3" font-family="Times New Roman,serif" font-size="14.00">#</text>
<polygon fill="none" stroke="blue" points="499.5,-66.5 499.5,-87.5 615.5,-87.5 615.5,-66.5 499.5,-66.5"/>
<text text-anchor="start" x="553.5" y="-73.3" font-family="Times New Roman,serif" font-size="14.00">#</text>
<polygon fill="none" stroke="blue" points="615.5,-66.5 615.5,-87.5 718.5,-87.5 718.5,-66.5 615.5,-66.5"/>
<text text-anchor="start" x="663" y="-73.3" font-family="Times New Roman,serif" font-size="14.00">#</text>
<polygon fill="none" stroke="blue" points="718.5,-66.5 718.5,-87.5 828.5,-87.5 828.5,-66.5 718.5,-66.5"/>
<text text-anchor="start" x="769.5" y="-73.3" font-family="Times New Roman,serif" font-size="14.00">#</text>
<polygon fill="none" stroke="blue" points="828.5,-66.5 828.5,-87.5 919.5,-87.5 919.5,-66.5 828.5,-66.5"/>
<text text-anchor="start" x="870" y="-73.3" font-family="Times New Roman,serif" font-size="14.00">#</text>
<polygon fill="none" stroke="blue" points="8.5,-45.5 8.5,-66.5 135.5,-66.5 135.5,-45.5 8.5,-45.5"/>
<text text-anchor="start" x="23.5" y="-53.3" font-family="Times New Roman,serif" font-weight="bold" font-size="14.00">register request</text>
<polygon fill="none" stroke="blue" points="135.5,-45.5 135.5,-66.5 216.5,-66.5 216.5,-45.5 135.5,-45.5"/>
<text text-anchor="start" x="171.5" y="-52.3" font-family="Times New Roman,serif" font-size="14.00">&gt;</text>
<polygon fill="none" stroke="blue" points="216.5,-45.5 216.5,-66.5 262.5,-66.5 262.5,-45.5 216.5,-45.5"/>
<text text-anchor="start" x="235.5" y="-52.3" font-family="Times New Roman,serif" font-size="14.00">#</text>
<polygon fill="none" stroke="blue" points="262.5,-45.5 262.5,-66.5 372.5,-66.5 372.5,-45.5 262.5,-45.5"/>
<text text-anchor="start" x="313" y="-52.3" font-family="Times New Roman,serif" font-size="14.00">&gt;</text>
<polygon fill="none" stroke="blue" points="372.5,-45.5 372.5,-66.5 499.5,-66.5 499.5,-45.5 372.5,-45.5"/>
<text text-anchor="start" x="431.5" y="-52.3" font-family="Times New Roman,serif" font-size="14.00">&gt;</text>
<polygon fill="none" stroke="blue" points="499.5,-45.5 499.5,-66.5 615.5,-66.5 615.5,-45.5 499.5,-45.5"/>
<text text-anchor="start" x="553.5" y="-52.3" font-family="Times New Roman,serif" font-size="14.00">#</text>
<polygon fill="none" stroke="blue" points="615.5,-45.5 615.5,-66.5 718.5,-66.5 718.5,-45.5 615.5,-45.5"/>
<text text-anchor="start" x="663" y="-52.3" font-family="Times New Roman,serif" font-size="14.00">#</text>
<polygon fill="none" stroke="blue" points="718.5,-45.5 718.5,-66.5 828.5,-66.5 828.5,-45.5 718.5,-45.5"/>
<text text-anchor="start" x="769.5" y="-52.3" font-family="Times New Roman,serif" font-size="14.00">#</text>
<polygon fill="none" stroke="blue" points="828.5,-45.5 828.5,-66.5 919.5,-66.5 919.5,-45.5 828.5,-45.5"/>
<text text-anchor="start" x="870" y="-52.3" font-family="Times New Roman,serif" font-size="14.00">#</text>
<polygon fill="none" stroke="blue" points="8.5,-24.5 8.5,-45.5 135.5,-45.5 135.5,-24.5 8.5,-24.5"/>
<text text-anchor="start" x="20" y="-32.3" font-family="Times New Roman,serif" font-weight="bold" font-size="14.00">reinitiate request</text>
<polygon fill="none" stroke="blue" points="135.5,-24.5 135.5,-45.5 216.5,-45.5 216.5,-24.5 135.5,-24.5"/>
<text text-anchor="start" x="171.5" y="-31.3" font-family="Times New Roman,serif" font-size="14.00">&gt;</text>
<polygon fill="none" stroke="blue" points="216.5,-24.5 216.5,-45.5 262.5,-45.5 262.5,-24.5 216.5,-24.5"/>
<text text-anchor="start" x="235" y="-31.3" font-family="Times New Roman,serif" font-size="14.00">&lt;</text>
<polygon fill="none" stroke="blue" points="262.5,-24.5 262.5,-45.5 372.5,-45.5 372.5,-24.5 262.5,-24.5"/>
<text text-anchor="start" x="313" y="-31.3" font-family="Times New Roman,serif" font-size="14.00">&gt;</text>
<polygon fill="none" stroke="blue" points="372.5,-24.5 372.5,-45.5 499.5,-45.5 499.5,-24.5 372.5,-24.5"/>
<text text-anchor="start" x="431.5" y="-31.3" font-family="Times New Roman,serif" font-size="14.00">&gt;</text>
<polygon fill="none" stroke="blue" points="499.5,-24.5 499.5,-45.5 615.5,-45.5 615.5,-24.5 499.5,-24.5"/>
<text text-anchor="start" x="553.5" y="-31.3" font-family="Times New Roman,serif" font-size="14.00">#</text>
<polygon fill="none" stroke="blue" points="615.5,-24.5 615.5,-45.5 718.5,-45.5 718.5,-24.5 615.5,-24.5"/>
<text text-anchor="start" x="663" y="-31.3" font-family="Times New Roman,serif" font-size="14.00">#</text>
<polygon fill="none" stroke="blue" points="718.5,-24.5 718.5,-45.5 828.5,-45.5 828.5,-24.5 718.5,-24.5"/>
<text text-anchor="start" x="769.5" y="-31.3" font-family="Times New Roman,serif" font-size="14.00">#</text>
<polygon fill="none" stroke="blue" points="828.5,-24.5 828.5,-45.5 919.5,-45.5 919.5,-24.5 828.5,-24.5"/>
<text text-anchor="start" x="870" y="-31.3" font-family="Times New Roman,serif" font-size="14.00">#</text>
<polygon fill="none" stroke="blue" points="8.5,-3.5 8.5,-24.5 135.5,-24.5 135.5,-3.5 8.5,-3.5"/>
<text text-anchor="start" x="29.5" y="-11.3" font-family="Times New Roman,serif" font-weight="bold" font-size="14.00">reject request</text>
<polygon fill="none" stroke="blue" points="135.5,-3.5 135.5,-24.5 216.5,-24.5 216.5,-3.5 135.5,-3.5"/>
<text text-anchor="start" x="172" y="-10.3" font-family="Times New Roman,serif" font-size="14.00">#</text>
<polygon fill="none" stroke="blue" points="216.5,-3.5 216.5,-24.5 262.5,-24.5 262.5,-3.5 216.5,-3.5"/>
<text text-anchor="start" x="235" y="-10.3" font-family="Times New Roman,serif" font-size="14.00">&lt;</text>
<polygon fill="none" stroke="blue" points="262.5,-3.5 262.5,-24.5 372.5,-24.5 372.5,-3.5 262.5,-3.5"/>
<text text-anchor="start" x="313.5" y="-10.3" font-family="Times New Roman,serif" font-size="14.00">#</text>
<polygon fill="none" stroke="blue" points="372.5,-3.5 372.5,-24.5 499.5,-24.5 499.5,-3.5 372.5,-3.5"/>
<text text-anchor="start" x="432" y="-10.3" font-family="Times New Roman,serif" font-size="14.00">#</text>
<polygon fill="none" stroke="blue" points="499.5,-3.5 499.5,-24.5 615.5,-24.5 615.5,-3.5 499.5,-3.5"/>
<text text-anchor="start" x="553.5" y="-10.3" font-family="Times New Roman,serif" font-size="14.00">#</text>
<polygon fill="none" stroke="blue" points="615.5,-3.5 615.5,-24.5 718.5,-24.5 718.5,-3.5 615.5,-3.5"/>
<text text-anchor="start" x="663" y="-10.3" font-family="Times New Roman,serif" font-size="14.00">#</text>
<polygon fill="none" stroke="blue" points="718.5,-3.5 718.5,-24.5 828.5,-24.5 828.5,-3.5 718.5,-3.5"/>
<text text-anchor="start" x="769.5" y="-10.3" font-family="Times New Roman,serif" font-size="14.00">#</text>
<polygon fill="none" stroke="blue" points="828.5,-3.5 828.5,-24.5 919.5,-24.5 919.5,-3.5 828.5,-3.5"/>
<text text-anchor="start" x="870" y="-10.3" font-family="Times New Roman,serif" font-size="14.00">#</text>
</g>
</g>
</svg>
